<?xml version="1.0" encoding="utf-8"?>
<!-- Generator: Adobe Illustrator 22.1.0, SVG Export Plug-In . SVG Version: 6.00 Build 0)  -->
<svg version="1.1" id="图层_1" xmlns="http://www.w3.org/2000/svg" xmlns:xlink="http://www.w3.org/1999/xlink" x="0px" y="0px"
	 viewBox="0 0 600 600" style="enable-background:new 0 0 600 600;" xml:space="preserve">
<path d="M542,48.2c-2.5,0-5,1-6.9,2.9L300,286.2L64.9,51.1c-2-2-4.4-2.9-6.9-2.9c-2.5,0-4.9,0.9-6.9,2.9c-3.9,3.9-3.9,10,0,13.9
	L286.1,300L51.1,535.1c-3.9,3.9-3.9,10,0,13.9c2,2,4.4,2.9,6.9,2.9c2.5,0,5-0.9,6.9-2.9l235-235.1L535,548.9
	c1.9,1.9,4.5,2.9,6.9,2.9c2.5,0,5-0.9,6.9-2.9c3.9-3.9,3.9-10,0-13.9L313.9,300L548.9,65c3.9-3.9,3.9-10,0-13.9
	C547,49.1,544.5,48.2,542,48.2z"/>
</svg>
