<?xml version="1.0" encoding="utf-8"?>
<!-- Generator: Adobe Illustrator 22.1.0, SVG Export Plug-In . SVG Version: 6.00 Build 0)  -->
<svg version="1.1" id="图层_1" xmlns="http://www.w3.org/2000/svg" xmlns:xlink="http://www.w3.org/1999/xlink" x="0px" y="0px"
	 viewBox="0 0 600 600" style="enable-background:new 0 0 600 600;" xml:space="preserve">
<path d="M161.6,41.5c-3.5,0-6.9,0.4-10.2,1c-3.3,0.7-6.5,1.7-9.5,2.9c-12.1,5.1-21.9,14.9-27.1,27.1l0,0v0c-2.6,6.1-4,12.7-4,19.7
	v31.8c0,22.4,13.2,46.1,32.7,69c19.6,22.8,45,44.3,66.9,62.6c5.9,5,11.5,9.7,16.5,14c6.9,6,11,14.5,11,23.6s-4.1,17.6-11,23.6
	c-5.2,4.5-11,9.4-17.2,14.6c-20,16.7-44.5,37.4-63.6,58.9c0.2-0.3,0,0-0.6,1l-0.4,0.5l-0.4,0.4c-20.2,23.2-33.9,47.5-33.9,70.2v31.8
	c0,7,1.4,13.6,4,19.7v0c0,0,0.1,0.1,0.1,0.1c1.3,2.9,2.8,5.8,4.7,8.5c1.3,1.9,3.1,4,5.1,6.2c1.6,1.7,1.9,2.2,1,1.3l0,0
	c3.6,3.6,8.1,6.6,13.2,9.2c2.2,1.1,3,1.7,2.9,1.6c0,0,0.1,0.1,0.1,0.1h0c-0.9-0.4-0.1-0.2,2.3,0.6c5.7,2.1,11.4,3.3,17.3,3.3h277.2
	c6.9,0,13.6-1.4,19.6-4c6.1-2.6,11.6-6.3,16.2-10.9c2.3-2.3,4.4-4.8,6.2-7.5c3.7-5.4,6.3-11.6,7.7-18.2c0.7-3.3,1-6.7,1-10.2v-31.8
	c0-22.8-13.7-47-33.9-70.2l-0.4-0.4l-0.4-0.5c-0.7-1-0.9-1.2-0.6-1c-19.1-21.6-43.6-42.2-63.7-58.9c0,0-0.2-0.1-0.7-0.5
	c-5.9-5-11.6-9.7-16.6-14c-6.8-5.9-11-14.5-11-23.6c0-2.2,0.3-4.5,0.8-6.7c1.5-6.5,5.1-12.4,10.2-16.9c5-4.4,10.7-9.1,16.5-14
	c21.8-18.3,47.3-39.8,66.9-62.6c19.6-22.8,32.7-46.6,32.7-69V92.3c0-14.1-5.7-26.7-14.9-35.9c-2.3-2.3-4.8-4.4-7.5-6.2
	c-8.1-5.5-17.9-8.7-28.4-8.7L161.6,41.5z M161.6,61h276.8c17.1,0,31.2,14.1,31.2,31.2v31.8c0,5.7-1.2,11.3-3.1,16.7
	c-6.6,19-21.9,37.2-38.9,54.4s-36.1,33.2-50.7,45.4c-6.1,5.1-11.8,9.9-16.8,14.2c-11.3,9.8-17.7,23.9-17.7,38.4
	c0,14.5,6.4,28.5,17.7,38.3c5,4.4,10.7,9.2,16.8,14.2c16.6,14,39.1,32.8,57.8,52.9c18.7,20.1,34.8,40.9,34.8,63.7v31.8
	c0,17.1-14.1,31.2-31.2,31.2H161.6c-17.1,0-31.2-14.1-31.2-31.2v-31.8c0-22.8,16.1-43.6,34.8-63.7s41.2-39,57.8-52.9
	c6.1-5.1,11.7-9.9,16.8-14.2c5.7-4.9,10.1-10.9,13.1-17.4c3-6.5,4.6-13.6,4.6-20.9c0-3.7-0.4-7.3-1.2-10.7
	c-0.8-3.5-1.9-6.9-3.4-10.2c-3-6.5-7.4-12.5-13.1-17.4c-5.1-4.4-10.7-9.2-16.8-14.2c-20.8-17.4-50.7-42.4-71-68.2v0l-2.3-2.9v-0.4
	c-3.1-4.1-6.1-8.1-8.6-12.3v0l-1.5-2.5v-2.2c-4.9-9.1-9.2-18.3-9.2-28V92.3c0-2.1,0.2-4.3,0.6-6.3C134,71.7,146.6,61,161.6,61
	L161.6,61z"/>
</svg>
