<?xml version="1.0" encoding="utf-8"?>
<!-- Generator: Adobe Illustrator 22.1.0, SVG Export Plug-In . SVG Version: 6.00 Build 0)  -->
<svg version="1.1" id="图层_1" xmlns="http://www.w3.org/2000/svg" xmlns:xlink="http://www.w3.org/1999/xlink" x="0px" y="0px"
	 viewBox="0 0 600 600" style="enable-background:new 0 0 600 600;" xml:space="preserve">
<path d="M300,39.2c-5.6,0-9.8,4.2-9.8,9.8v251.2c0,5.6,4.2,9.8,9.8,9.8c5.6,0,9.8-4.2,9.8-9.8V49C309.8,43.4,305.6,39.2,300,39.2
	L300,39.2z M158.6,267.8c-2.5,0-5,0.9-7,2.9c-3.9,3.9-4,9.9-0.1,13.9v0L263,397.7c9.9,9.9,22.9,14.9,35.9,14.9
	c13,0,26-4.9,35.9-14.8v0l113.6-113.1c3.9-3.9,3.9-9.9,0-13.8c-2-2-4.4-2.9-6.9-2.9c-2.5,0-5,0.9-6.9,2.9L321,383.9
	c-5.8,5.8-13.8,9.2-22.1,9.2c-8.3,0-16.2-3.3-22-9.1l-0.1,0l-111.4-113C163.5,268.9,161.1,267.9,158.6,267.8L158.6,267.8z M58,461.7
	c-5.6,0-9.8,4.2-9.8,9.8c0,39.4,31.9,71.3,71.3,71.3h360.9c39.4,0,71.3-31.9,71.3-71.3c0-5.5-4.3-9.8-9.8-9.8
	c-5.6,0-9.8,4.2-9.8,9.8c0,28.4-23.3,51.7-51.7,51.7H119.5c-28.4,0-51.7-23.3-51.7-51.7C67.8,465.9,63.6,461.7,58,461.7L58,461.7z"
	/>
</svg>
