<?xml version="1.0" encoding="utf-8"?>
<!-- Generator: Adobe Illustrator 22.1.0, SVG Export Plug-In . SVG Version: 6.00 Build 0)  -->
<svg version="1.1" id="图层_1" xmlns="http://www.w3.org/2000/svg" xmlns:xlink="http://www.w3.org/1999/xlink" x="0px" y="0px"
	 viewBox="0 0 600 600" style="enable-background:new 0 0 600 600;" xml:space="preserve">
<path d="M119.5,70.2c-39.4,0-71.3,31.9-71.3,71.3v316.9c0,39.4,31.9,71.3,71.3,71.3h360.9c39.4,0,71.3-31.9,71.3-71.3
	c0-5.6-4.2-9.8-9.8-9.8c-5.6,0-9.8,4.2-9.8,9.8c0,28.4-23.3,51.7-51.7,51.7H119.5c-28.4,0-51.7-23.3-51.7-51.7V141.5
	c0-28.4,23.3-51.7,51.7-51.7l77.9,0c28.4,0,51.7,23.3,51.7,51.7v2.1c0,5.5,4.3,9.8,9.8,9.8h242c8.2,0,16.2,3.3,22.1,9.2
	c5.8,5.8,9.1,13.8,9.1,22v171.3c0,5.6,4.2,9.8,9.8,9.8h0c5.5,0,9.8-4.3,9.8-9.8V184.7c0-13.6-5.2-26.3-14.9-35.9
	c-9.6-9.6-22.3-14.9-36-14.9H268.9l-1.9-8.3c-7.3-31.6-35.6-55.3-69.5-55.3L119.5,70.2z"/>
</svg>
