<?xml version="1.0" encoding="utf-8"?>
<!-- Generator: Adobe Illustrator 22.1.0, SVG Export Plug-In . SVG Version: 6.00 Build 0)  -->
<svg version="1.1" id="图层_1" xmlns="http://www.w3.org/2000/svg" xmlns:xlink="http://www.w3.org/1999/xlink" x="0px" y="0px"
	 viewBox="0 0 131.4 503.6" style="enable-background:new 0 0 131.4 503.6;" xml:space="preserve">
<path d="M66.2,0C30.2,0,1,29.2,1,65.2s29.1,65.1,65.2,65.1c36,0,65.2-29.1,65.2-65.1S102.2,0,66.2,0z M66.2,19.6
	c25,0,45.6,20.5,45.6,45.6c0,25-20.6,45.6-45.6,45.6c-25,0-45.6-20.5-45.6-45.6C20.6,40.2,41.1,19.6,66.2,19.6z M65.2,193.8
	C29.1,193.8,0,223,0,259v179.4c0,36,29.2,65.2,65.2,65.2s65.2-29.2,65.2-65.2c0,0.9,0,0.7-0.1-0.9l-0.1-1l0.1-1
	c0.1-1.5,0.1-1.8,0.1-0.9V259C130.3,223,101.2,193.8,65.2,193.8L65.2,193.8z M65.2,213.4c25,0,45.6,20.5,45.6,45.6v175.7
	c0-0.9,0-0.6,0.1,0.9l0.1,1l-0.1,1c-0.1,1.6-0.1,1.8-0.1,0.9c0,25-20.5,45.6-45.6,45.6c-25,0-45.6-20.5-45.6-45.6V258.9
	C19.6,233.9,40.1,213.3,65.2,213.4L65.2,213.4z"/>
</svg>
