<?xml version="1.0" encoding="utf-8"?>
<!-- Generator: Adobe Illustrator 22.1.0, SVG Export Plug-In . SVG Version: 6.00 Build 0)  -->
<svg version="1.1" id="图层_1" xmlns="http://www.w3.org/2000/svg" xmlns:xlink="http://www.w3.org/1999/xlink" x="0px" y="0px"
	 viewBox="0 0 600 600" style="enable-background:new 0 0 600 600;" xml:space="preserve">
<path d="M179.1,88.9c-36.2,0-68.8,13.3-92.6,37.3c-6.2,6.3-11.7,13.2-16.5,20.6c-2.4,3.7-4.6,7.5-6.6,11.5
	c-10,19.9-15.2,43-15.2,68.8c0,4.9,0.3,9.7,0.8,14.6c0.1,1.2,0.3,2.4,0.5,3.6c0.5,3.7,1.1,7.3,1.9,11c0.2,1.1,0.5,2.3,0.7,3.4
	c0.9,3.8,2,7.6,3.2,11.4c0.2,0.7,0.4,1.4,0.7,2.2c1.5,4.5,3.3,9,5.3,13.4c2,4.5,4.3,9,6.9,13.5c2.4,4.2,5,8.5,7.9,12.7
	c0.3,0.5,0.6,0.9,1,1.4c1.9,2.8,3.8,5.6,5.9,8.4c0.5,0.7,1.2,1.3,1.7,2c3.5,4.6,7.2,9.1,11.1,13.5c0.7,0.8,1.6,1.6,2.3,2.4
	c6,6.7,12.3,13.1,18.8,19.3c0.8,0.8,1.6,1.6,2.4,2.4c8.3,7.8,16.7,15.1,24.9,21.9c0.2,0.2,0.4,0.3,0.6,0.5
	c5.4,4.5,10.8,8.9,15.9,12.8c0.3,0.2,0.6,0.2,0.8,0.4c12.3,9.7,24.8,19.2,37.2,28.4c15.8,11.8,31.1,23.3,45.5,35
	c9.6,7.8,18,15.1,25.4,22c0.7,0.6,1.5,1.2,2.1,1.9c4,3.8,7.6,7.5,11,11.1c2.6,2.7,4.8,5.4,7.1,8.1c0.8,1,1.8,2,2.6,3v0v0h0
	c1.9,2.3,4.6,3.6,7.6,3.6h0h0c3,0,5.7-1.3,7.6-3.6c0,0,0,0,0,0v0c0.8-1,1.8-2,2.6-3c2.3-2.7,4.5-5.3,7.1-8.1
	c3.4-3.6,7.1-7.3,11-11.1c0.7-0.6,1.5-1.2,2.1-1.9c7.4-6.9,15.8-14.2,25.4-22c14.4-11.6,29.7-23.2,45.5-35
	c12.4-9.2,24.8-18.7,37.2-28.4c0.3-0.2,0.6-0.2,0.8-0.4c5-3.9,10.4-8.3,15.9-12.8c0.2-0.1,0.3-0.3,0.5-0.4c0,0,0.1-0.1,0.1-0.1
	c8.2-6.8,16.6-14.1,24.9-21.9c0.8-0.8,1.6-1.6,2.4-2.4c6.5-6.2,12.7-12.6,18.8-19.3c0.7-0.8,1.6-1.6,2.3-2.4
	c3.9-4.4,7.6-9,11.1-13.5c0.5-0.7,1.2-1.3,1.7-2c2.1-2.8,4-5.6,5.9-8.4c0.3-0.5,0.6-0.9,1-1.4c2.9-4.3,5.5-8.5,7.9-12.7
	c2.5-4.5,4.8-9,6.9-13.5c2-4.5,3.7-8.9,5.3-13.4c0.2-0.7,0.4-1.4,0.7-2.2c1.2-3.8,2.3-7.6,3.2-11.4c0.3-1.1,0.5-2.3,0.7-3.4
	c0.8-3.6,1.4-7.3,1.9-11c0.2-1.2,0.3-2.4,0.5-3.6c0.5-4.8,0.8-9.7,0.8-14.6c0-5.1-0.2-10.2-0.6-15.2c-1.6-19.7-6.6-37.7-14.6-53.6v0
	c-6-11.9-13.7-22.7-23.1-32.1c-5.9-6-12.4-11.4-19.4-16h0c-7-4.6-14.4-8.5-22.2-11.7h0c-15.6-6.3-32.8-9.6-50.9-9.6
	c-8,0-15.5,0.5-22.5,1.4c-28.1,3.7-48.4,14.2-63.3,27c-3.7,3.2-7.1,6.5-10.2,9.9c-3.1,3.4-5.9,6.9-8.4,10.3
	c-2.5,3.5-4.8,6.9-6.8,10.3l0,0l-9.8,16.2l-9.8-16.2l0,0c-16.2-27.1-47-59-111.1-59L179.1,88.9z M179.1,108.5
	c20.6,0,39.1,4.1,54.9,12.2c15.8,8.1,28.9,20.1,38.6,35.9c1.9,3.1,3.7,6.2,5.2,9.3c0.6,1.2,1.1,2.4,1.6,3.7c0.8,1.8,1.7,3.6,2.4,5.4
	c2.4,5.9,4.1,11.4,5.3,16.2c1.2,4.7,2,8.8,2.5,11.6c0.2,1.4,0.4,2.6,0.5,3.4c0.1,0.4,0.1,0.7,0.1,1c0,0.2,0,0,0.1,0.6
	c0.3,3.9,2.7,7,6.1,8.3c1.1,0.5,2.4,0.7,3.7,0.7c1.3,0,2.5-0.3,3.6-0.7c3.4-1.3,5.8-4.4,6.1-8.3c0.1-0.6,0-0.4,0.1-0.6
	c0-0.3,0.1-0.6,0.1-1c0.1-0.8,0.2-2,0.5-3.4c0.5-2.9,1.2-6.9,2.5-11.6c1.2-4.7,3-10.3,5.3-16.2c0.7-1.8,1.6-3.6,2.4-5.4
	c1.9-4.3,4.1-8.6,6.8-13c7.3-11.8,16.5-21.6,27.3-29.1c18-12.6,40.5-19,66.3-19c24.2,0,45.9,7.1,63.5,19.5h0
	c29.4,20.8,47.6,56.5,47.6,99.1c0,4.7-0.3,9.4-0.9,14c-0.1,0.7-0.2,1.3-0.3,2c-0.5,3.9-1.2,7.7-2.1,11.5c-0.2,0.8-0.4,1.5-0.6,2.3
	c-1.1,4.1-2.3,8.3-3.7,12.3c-3.8,10.4-8.9,20.2-15,29.7c-2.3,3.6-4.7,7.2-7.3,10.7c-1.9,2.5-3.8,5.1-5.8,7.6
	c-3.5,4.3-7.1,8.5-10.8,12.7c0,0-0.1,0-0.1,0.1c-6.7,7.4-14,14.5-21.6,21.5c-6.8,6.3-14,12.4-21.3,18.4c-2.8,2.3-5.5,4.5-8.3,6.7
	c-14.6,11.7-29.8,23.1-44.8,34.3c-15.3,11.5-30.3,22.6-44.1,33.7c0,0,0,0,0,0c0,0-0.1,0-0.1,0h0c-2.5,2-4.5,3.8-6.9,5.8
	c-4.7,3.9-9.4,7.7-13.7,11.6c-1.9,1.7-3.4,3.3-5.3,5c-4,3.7-8.1,7.4-11.8,11.2c0,0-0.1,0-0.1,0l-7.6,7.8l-7.6-7.8c0,0-0.1,0-0.1,0
	c-2-2.1-4.6-4.3-6.8-6.4c-3.4-3.3-6.7-6.5-10.6-10c-3.7-3.3-7.8-6.6-11.7-9.9c-2.9-2.4-5.5-4.7-8.7-7.3h0c0,0-0.1,0-0.1-0.1
	c-13.9-11.1-28.8-22.3-44.1-33.7c-15-11.2-30.1-22.6-44.8-34.3c-2.8-2.2-5.6-4.5-8.3-6.7c-7.3-6-14.5-12.1-21.3-18.4
	c-7.6-7-14.8-14.1-21.6-21.5c0,0-0.1,0-0.1-0.1c-3.8-4.1-7.4-8.4-10.9-12.7c-2-2.5-3.9-5-5.8-7.6c-2.6-3.5-5-7.1-7.3-10.7
	c-6.1-9.5-11.2-19.4-15-29.7c-1.5-4-2.7-8.1-3.7-12.3c-0.2-0.8-0.4-1.5-0.6-2.3c-0.9-3.8-1.6-7.6-2.1-11.5c-0.1-0.7-0.2-1.3-0.3-2
	c-0.5-4.6-0.9-9.2-0.9-14c0-42.6,18.2-78.3,47.6-99.1h0C133.2,115.6,154.9,108.5,179.1,108.5L179.1,108.5z"/>
</svg>
