<?xml version="1.0" encoding="utf-8"?>
<!-- Generator: Adobe Illustrator 22.1.0, SVG Export Plug-In . SVG Version: 6.00 Build 0)  -->
<svg version="1.1" id="图层_1" xmlns="http://www.w3.org/2000/svg" xmlns:xlink="http://www.w3.org/1999/xlink" x="0px" y="0px"
	 viewBox="0 0 600 600" style="enable-background:new 0 0 600 600;" xml:space="preserve">
<path d="M300,77.9c-5.6,0-10.1,4.4-10.1,10.1l0,291.3l-60.8-60.8c-4-4-10.3-4-14.3,0s-4,10.3,0,14.3l78,78c1.9,1.9,4.5,3,7.1,3
	s5.2-1.1,7.1-3l78-78c4-4,4-10.3,0-14.3s-10.3-4-14.3,0L310,379.2V88C310,82.3,305.6,77.9,300,77.9L300,77.9z M61.4,298.9
	c-5.7,0-10.1,4.4-10.1,10.1v203.1c0,5.6,4.4,10.1,10.1,10.1h477.2c5.7,0,10.1-4.4,10.1-10.1V309c0-5.6-4.4-10.1-10.1-10.1
	c-5.7,0-10.1,4.4-10.1,10.1v193h-457V309C71.5,303.3,67.1,298.9,61.4,298.9L61.4,298.9z"/>
</svg>
