<?xml version="1.0" encoding="utf-8"?>
<!-- Generator: Adobe Illustrator 22.1.0, SVG Export Plug-In . SVG Version: 6.00 Build 0)  -->
<svg version="1.1" id="图层_1" xmlns="http://www.w3.org/2000/svg" xmlns:xlink="http://www.w3.org/1999/xlink" x="0px" y="0px"
	 viewBox="0 0 600 600" style="enable-background:new 0 0 600 600;" xml:space="preserve">
<path d="M344.2,46.5c-5,0-8.8,3.9-8.8,8.8v59.4H105.2c-5,0-8.8,3.8-8.8,8.8v421c0,5,3.9,8.8,8.8,8.8h375.5c5,0,8.8-3.9,8.8-8.8v-421
	c0-5-3.9-8.8-8.8-8.8h-59.6l-1.4-6.6C412.6,73.1,381.5,46.5,344.2,46.5L344.2,46.5z M353,63.7l11,3.9c23.1,8.2,39.6,30.2,39.6,56
	v325l-12.4-7.2c-8.8-5.1-19.1-8-30-8H353V75.3L353,63.7z M421.3,132.5h50.6v403.4H406l7.2-12.4c5.1-8.8,8.1-19.1,8.1-30V140.7
	L421.3,132.5z M114.1,132.5h221.3v259.8l0,34.7v15.4c0,5,3.9,8.8,8.8,8.8h17c23.3,0,42.4,19.1,42.4,42.4s-19.1,42.3-42.4,42.4H114
	V358.1l0-34.4v-183L114.1,132.5z M173.5,183.1c-5,0-8.8,3.8-8.8,8.8c0,5,3.9,8.8,8.8,8.8h68.3c5,0,8.8-3.9,8.8-8.8
	c0-5-3.8-8.8-8.8-8.8H173.5z"/>
</svg>
