<?xml version="1.0" encoding="utf-8"?>
<!-- Generator: Adobe Illustrator 22.1.0, SVG Export Plug-In . SVG Version: 6.00 Build 0)  -->
<svg version="1.1" id="图层_1" xmlns="http://www.w3.org/2000/svg" xmlns:xlink="http://www.w3.org/1999/xlink" x="0px" y="0px"
	 viewBox="0 0 600 600" style="enable-background:new 0 0 600 600;" xml:space="preserve">
<path d="M224.4,48.1c-48.2,0-93.4,18.7-127.5,52.8C62.8,135,44.1,180.2,44.1,228.4c0,48.2,18.7,93.4,52.8,127.5
	c35.2,35.2,81.3,52.7,127.5,52.7c41.5,0,82.9-14.2,116.4-42.5l4.6-3.9l29.1,29.1l-2.5,4.4c-4.3,7.6-6.5,16.1-6.5,25.1
	c0,13.7,5.3,26.5,15,36.2l87.9,87.9c9.7,9.7,22.5,15,36.2,15s26.5-5.3,36.2-15c9.7-9.7,15-22.5,15-36.2s-5.3-26.5-15-36.2L453,384.6
	c-9.7-9.7-22.5-15-36.2-15c-9,0-17.5,2.3-25.1,6.5l-4.4,2.5l-29.1-29.1l3.9-4.6c59.9-70.8,56.6-177.1-10.2-243.9
	C317.8,66.8,272.6,48.1,224.4,48.1L224.4,48.1z M224.4,66.1c43.3,0,84.2,16.9,114.8,47.6c63.2,63.2,63.2,166.3,0,229.5
	c-31.6,31.6-73.2,47.5-114.8,47.5c-41.6,0-83.1-15.8-114.8-47.5C79,312.6,62.1,271.7,62.1,228.4c0-43.3,16.9-84.1,47.6-114.8
	C140.3,83.1,181.1,66.1,224.4,66.1L224.4,66.1z M416.8,387.6c8.5,0,17,3.2,23.5,9.7l87.9,87.9c12.9,12.9,12.9,34.1,0,47h0l-1.9,1.9
	h-2.8c-12.9,9.3-30.7,9.7-42.3-1.9l-87.9-87.9c-12.9-12.9-12.9-34.1,0-47C399.8,390.8,408.3,387.6,416.8,387.6L416.8,387.6z"/>
</svg>
