<?xml version="1.0" encoding="utf-8"?>
<svg viewBox="0 0 439 503.6" version="1.1" xmlns="http://www.w3.org/2000/svg">
	<path d="M80.8,0c1.6,0.1,3.2,0.6,4.7,1.5c2.9,1.8,4.6,4.9,4.6,8.3v94.9l41.1,25.7l40.7-25.6V9.8c0-3.4,1.7-6.5,4.6-8.3
	c2.9-1.8,6.5-2,9.5-0.5c12.9,6.4,23.7,14,32.2,22.4c23.2,23.1,39.1,53.7,43.5,83c5.4,35.4-4.7,67-28.3,90.6
	c-8.8,8.8-26.7,19.8-43.6,25.1l-7.5,2.3v227.4c0,13.6-5.2,26.2-14.7,35.8c-9.6,9.7-22.1,14.9-35.7,14.9h0
	c-13.6,0-26.3-5.2-35.9-14.8c-9.8-9.7-15-22.4-15-35.9c0,0.8,0,0.5,0.2-1l0.1-1.2l-0.2-1.2c-0.2-1.4-0.2-1.7-0.2-1.2V224.7l-7.6-2.3
	c-16.8-5.1-34.8-16.2-43.9-25.3C10,177.9,0,153.3,0,124.9v-0.2C0,89.6,16.6,51.3,44.5,23.5C53.5,14.5,64.1,7,76,1
	C77.6,0.3,79.3-0.1,80.8,0L80.8,0z M406.7,1.3c4.5,0,8.4,3,9.5,7.5l22.5,91.4c0.8,3.3-0.1,6.7-2.5,9.1l-43.2,43.9v110.4l7.1,2.5
	c19.6,7,33.8,25.7,33.8,47.8v138.9c0,13.6-5.2,26.2-14.8,35.9s-22.2,14.8-35.8,14.8h0c-13.6,0-26.2-5.2-35.8-14.8
	c-9.6-9.6-14.8-22.2-14.8-35.8V314c0-13.6,5.2-26.2,14.8-35.9c5.5-5.5,11.9-9.5,18.9-12l7.1-2.5V153.3l-41.2-43.9
	c-2.4-2.4-3.3-5.8-2.5-9.1l22.5-91.4c1.1-4.4,5-7.5,9.5-7.5L406.7,1.3z M399,20.8h-29.7l-19.4,78.7l34.3,34.7l34.3-34.7L401,29
	L399,20.8z M191.4,22.3v87.8c0,3.4-1.7,6.4-4.5,8.2l0,0l-50.3,31.7c-3.2,2-7.2,2-10.4,0.1l-51-31.8c-2.9-1.8-4.6-4.9-4.6-8.3V22.7
	L51.8,44.2c-20.3,23.2-32.4,52.2-32.4,80.6c0,15.8,4.2,39.2,23.6,58.6c5.6,5.6,13.3,10.5,21.8,14.7c8.4,4.2,17.2,7.6,26.1,8
	c5.3,0.2,9.3,4.5,9.3,9.8v231.6c0-0.5,0-0.1-0.2,1.1l-0.1,1.2l0.1,1.2c0.1,1.3,0.2,1.6,0.2,1.1c0,8.3,3.5,16.2,9.3,22h0
	c5.8,5.8,13.8,9.1,22.1,9.1c8.2,0,16.1-3.3,21.9-9.1c5.8-5.9,9-13.9,9-22.1V215.8c0-5.2,3.9-9.4,9.1-9.7c8.9-0.6,17.7-4,26.2-8.2
	s16.1-9,21.6-14.5c19-19,27.1-45.8,22.8-73.9c-3.6-23.6-15.2-46.9-32.3-66.1L191.4,22.3z M383.1,282.8c-8.2,0-16.2,3.3-22,9.1
	c-5.8,5.8-9.1,13.8-9.1,22v138.9c0,8.3,3.4,16.2,9.2,22c5.8,5.8,13.8,9.1,22,9.1c8.2,0,16.2-3.3,22-9.1c5.8-5.8,9.2-13.8,9.2-22V314
	C414.4,296.9,400.2,282.8,383.1,282.8L383.1,282.8z"/>
</svg>
